<svg xmlns="http://www.w3.org/2000/svg" viewBox="0 0 1024 1024" width="1024" height="1024">
  <!-- Android adaptive foreground (108dp canvas, 66dp safe zone). Generated by tfa/brand/draw_brand.py; edit that, not this. -->
  <defs><linearGradient id="ahs" x1="0" y1="188" x2="0" y2="660" gradientUnits="userSpaceOnUse"><stop offset="0" stop-color="#FFFFFF"/><stop offset="1" stop-color="#DDE8F5"/></linearGradient></defs>
  <g transform="translate(93.43 73.55) scale(1.04642)"><path d="M 209.0 551 V 360 A 191.0 147.0 0 0 1 591.0 360 V 503" fill="none" stroke="url(#ahs)" stroke-width="50" stroke-linecap="round"/><path d="M 170 368 H 203 Q 219 368 219 384 V 517 Q 219 533 203 533 H 170 Q 126 533 126 489 V 412 Q 126 368 170 368 Z" fill="url(#ahs)"/><path d="M 597 368 H 630 Q 674 368 674 412 V 489 Q 674 533 630 533 H 597 Q 581 533 581 517 V 384 Q 581 368 597 368 Z" fill="url(#ahs)"/><path d="M 609 493 V 539 C 609 587, 587 597, 549 597 L 440 597" fill="none" stroke="url(#ahs)" stroke-width="40" stroke-linecap="round" stroke-linejoin="round"/><circle cx="420" cy="590" r="60" fill="#EA692E"/></g>
</svg>
