<svg xmlns="http://www.w3.org/2000/svg" viewBox="0 0 1024 1024" width="1024" height="1024">
  <!-- macOS app icon: 824 px tile + shadow in a 1024 canvas. Generated by tfa/brand/draw_brand.py; edit that, not this. -->
  <defs><linearGradient id="tbg" x1="0.15" y1="0" x2="0.85" y2="1"><stop offset="0" stop-color="#0C4E9E"/><stop offset="0.32" stop-color="#082A5C"/><stop offset="0.7" stop-color="#051B3D"/><stop offset="1" stop-color="#021129"/></linearGradient><radialGradient id="tgl" cx="0.22" cy="0.08" r="0.75"><stop offset="0" stop-color="#2E8AF0" stop-opacity="0.28"/><stop offset="1" stop-color="#2E8AF0" stop-opacity="0"/></radialGradient><linearGradient id="mhs" x1="0" y1="188" x2="0" y2="660" gradientUnits="userSpaceOnUse"><stop offset="0" stop-color="#FFFFFF"/><stop offset="1" stop-color="#DDE8F5"/></linearGradient><filter id="sh" x="-10%" y="-10%" width="120%" height="125%"><feDropShadow dx="0" dy="10" stdDeviation="12" flood-color="#000" flood-opacity="0.30"/></filter></defs>
  <g filter="url(#sh)"><rect x="100" y="100" width="824" height="824" rx="184" fill="url(#tbg)"/><rect x="100" y="100" width="824" height="824" rx="184" fill="url(#tgl)"/><g transform="translate(90.98 70.98) scale(1.05255)"><path d="M 209.0 551 V 360 A 191.0 147.0 0 0 1 591.0 360 V 503" fill="none" stroke="url(#mhs)" stroke-width="50" stroke-linecap="round"/><path d="M 170 368 H 203 Q 219 368 219 384 V 517 Q 219 533 203 533 H 170 Q 126 533 126 489 V 412 Q 126 368 170 368 Z" fill="url(#mhs)"/><path d="M 597 368 H 630 Q 674 368 674 412 V 489 Q 674 533 630 533 H 597 Q 581 533 581 517 V 384 Q 581 368 597 368 Z" fill="url(#mhs)"/><path d="M 609 493 V 539 C 609 587, 587 597, 549 597 L 440 597" fill="none" stroke="url(#mhs)" stroke-width="40" stroke-linecap="round" stroke-linejoin="round"/><circle cx="420" cy="590" r="60" fill="#EA692E"/></g></g>
</svg>
