<svg xmlns="http://www.w3.org/2000/svg" viewBox="0 0 1024 1024" width="1024" height="1024">
  <!-- Small-size master (16-32 px): heavier strokes so the mark survives. Generated by tfa/brand/draw_brand.py; edit that, not this. -->
  <defs><linearGradient id="tbg" x1="0.15" y1="0" x2="0.85" y2="1"><stop offset="0" stop-color="#0C4E9E"/><stop offset="0.32" stop-color="#082A5C"/><stop offset="0.7" stop-color="#051B3D"/><stop offset="1" stop-color="#021129"/></linearGradient><radialGradient id="tgl" cx="0.22" cy="0.08" r="0.75"><stop offset="0" stop-color="#2E8AF0" stop-opacity="0.28"/><stop offset="1" stop-color="#2E8AF0" stop-opacity="0"/></radialGradient><linearGradient id="mhs" x1="0" y1="188" x2="0" y2="660" gradientUnits="userSpaceOnUse"><stop offset="0" stop-color="#FFFFFF"/><stop offset="1" stop-color="#DDE8F5"/></linearGradient></defs>
  <rect x="0" y="0" width="1024" height="1024" rx="229" fill="url(#tbg)"/><rect x="0" y="0" width="1024" height="1024" rx="229" fill="url(#tgl)"/><g transform="translate(-71.01 -111.09) scale(1.45752)"><path d="M 220.0 558 V 360 A 180.0 136.0 0 0 1 580.0 360 V 510" fill="none" stroke="url(#mhs)" stroke-width="72" stroke-linecap="round"/><path d="M 176 364 H 212 Q 230 364 230 382 V 522 Q 230 540 212 540 H 176 Q 126 540 126 490 V 414 Q 126 364 176 364 Z" fill="url(#mhs)"/><path d="M 588 364 H 624 Q 674 364 674 414 V 490 Q 674 540 624 540 H 588 Q 570 540 570 522 V 382 Q 570 364 588 364 Z" fill="url(#mhs)"/><path d="M 601 500 V 546 C 601 594, 579 604, 541 604 L 440 604" fill="none" stroke="url(#mhs)" stroke-width="56" stroke-linecap="round" stroke-linejoin="round"/><circle cx="420" cy="597" r="70" fill="#EA692E"/></g>
</svg>
