<svg xmlns="http://www.w3.org/2000/svg" viewBox="0 0 1024 1024" width="1024" height="1024">
  <!-- Small-size master (16-32 px): heavier strokes so the mark survives. Generated by tfa/brand/draw_brand.py; edit that, not this. -->
  <defs><linearGradient id="tbg" x1="0.15" y1="0" x2="0.85" y2="1"><stop offset="0" stop-color="#0C4E9E"/><stop offset="0.32" stop-color="#082A5C"/><stop offset="0.7" stop-color="#051B3D"/><stop offset="1" stop-color="#021129"/></linearGradient><radialGradient id="tgl" cx="0.22" cy="0.08" r="0.75"><stop offset="0" stop-color="#2E8AF0" stop-opacity="0.28"/><stop offset="1" stop-color="#2E8AF0" stop-opacity="0"/></radialGradient><linearGradient id="mhs" x1="0" y1="217" x2="0" y2="560" gradientUnits="userSpaceOnUse"><stop offset="0" stop-color="#FFFFFF"/><stop offset="1" stop-color="#DDE8F5"/></linearGradient><linearGradient id="msw" x1="0.3" y1="0" x2="0.7" y2="1"><stop offset="0" stop-color="#3C9BF8"/><stop offset="0.4" stop-color="#1471E0"/><stop offset="1" stop-color="#0550B8"/></linearGradient></defs>
  <rect x="0" y="0" width="1024" height="1024" rx="229" fill="url(#tbg)"/><rect x="0" y="0" width="1024" height="1024" rx="229" fill="url(#tgl)"/><g transform="translate(-163.84 -68.02) scale(1.46286)"><path d="M 300 146 C 520 136, 742 250, 742 392 C 742 545, 520 640, 318 648 C 500 618, 638 525, 638 395 C 638 265, 505 171, 300 146 Z" fill="url(#msw)"/><path d="M 246.0 514 V 362 A 134.0 113.0 0 0 1 514.0 362 V 514" fill="none" stroke="url(#mhs)" stroke-width="64"/><path d="M 228 364 H 262 Q 278 364 278 380 V 518 Q 278 534 262 534 H 228 Q 182 534 182 488 V 410 Q 182 364 228 364 Z" fill="url(#mhs)"/><path d="M 498 364 H 532 Q 578 364 578 410 V 488 Q 578 534 532 534 H 498 Q 482 534 482 518 V 380 Q 482 364 498 364 Z" fill="url(#mhs)"/><path d="M 516 486 C 516 536, 492 540, 452 540 L 390 540" fill="none" stroke="url(#mhs)" stroke-width="40" stroke-linecap="round"/><circle cx="378" cy="536" r="60" fill="#EA692E"/></g>
</svg>
